# xmcd
#
# Track frame offsets:
# 150
# 13986
# 28746
# 41302
# 51122
# 63053
# 82092
# 92203
# 103875
# 118997
# 128945
# 146909
#
# Disc length: 2112 seconds
#
#
# Revision: 0
# Processed by: cddbd v1.5.1PL0 Copyright (c) Steve Scherf et al.
# Submitted via: FreeRIP 2.90 
#
DISCID=ae083e0c
DTITLE=compsct disc 2 - Great Kiwi Country disc 2
DYEAR=1900
DGENRE=Country
TTITLE0=Sweet Memories - Eddie Low
TTITLE1=Upside of Down - Kylie Harris
TTITLE2=I Love You Because - John Grenell
TTITLE3=She TaughtMe How To Yodel - Rusty Graves
TTITLE4=Stand By Your Man - Jodi Vaughan
TTITLE5=Help Me Mkae It Thru The Night - Dennis Marsh
TTITLE6=Blue Eyes Crying In The Rain - Suzanne Prentice
TTITLE7=El Paso - Jenny Blackadder
TTITLE8=Almost Persuaded - Brendan Dugan
TTITLE9=No Money In This Deal -Rusty Greaves
TTITLE10=Glory Train - Gray Bartlett
TTITLE11=Maple On The Hill -Cole Wilson
EXTD=
EXTT0=
EXTT1=
EXTT2=
EXTT3=
EXTT4=
EXTT5=
EXTT6=
EXTT7=
EXTT8=
EXTT9=
EXTT10=
EXTT11=
PLAYORDER=
